HIERARCHY
ROOT hip
{
	OFFSET 0.000000 0.000000 0.000000 
	CHANNELS 6 Xposition Yposition Zposition Xrotation Zrotation Yrotation
	JOINT abdomen
	{
		OFFSET 0.000000 3.402643 0.000000 
		CHANNELS 3 Xrotation Zrotation Yrotation
		JOINT chest
		{
			OFFSET 0.000000 8.438565 -0.680529 
			CHANNELS 3 Xrotation Zrotation Yrotation
			JOINT neck
			{
				OFFSET 0.000000 10.207942 -0.272212 
				CHANNELS 3 Xrotation Zrotation Yrotation
				JOINT head
				{
					OFFSET 0.000000 3.130431 0.000000 
					CHANNELS 3 Xrotation Zrotation Yrotation
					End Site
					{
						OFFSET 0.000000 3.130435 0.000000 
					}
				}
			}
			JOINT lCollar
			{
				OFFSET 3.470700 6.669187 -0.816635 
				CHANNELS 3 Yrotation Zrotation Xrotation
				JOINT lShldr
				{
					OFFSET 3.198488 0.000000 0.000000 
					CHANNELS 3 Zrotation Yrotation Xrotation
					JOINT lForeArm
					{
						OFFSET 10.139888 0.000000 0.000000 
						CHANNELS 3 Yrotation Zrotation Xrotation
						JOINT lHand
						{
							OFFSET 8.370511 0.000000 0.000000 
							CHANNELS 3 Zrotation Yrotation Xrotation
							End Site
							{
								OFFSET 4.083176 0.000000 0.000000 
							}
						}
					}
				}
			}
			JOINT rCollar
			{
				OFFSET -3.470700 6.669187 -0.816635 
				CHANNELS 3 Yrotation Zrotation Xrotation
				JOINT rShldr
				{
					OFFSET -3.198488 0.000000 0.000000 
					CHANNELS 3 Zrotation Yrotation Xrotation
					JOINT rForeArm
					{
						OFFSET -10.139888 0.000000 0.000000 
						CHANNELS 3 Yrotation Zrotation Xrotation
						JOINT rHand
						{
							OFFSET -8.370511 0.000000 0.000000 
							CHANNELS 3 Zrotation Yrotation Xrotation
							End Site
							{
								OFFSET -4.083176 0.000000 0.000000 
							}
						}
					}
				}
			}
		}
	}
	JOINT lThigh
	{
		OFFSET 5.308129 -1.633274 1.361059 
		CHANNELS 3 Xrotation Zrotation Yrotation
		JOINT lShin
		{
			OFFSET -2.041588 -20.007561 0.000000 
			CHANNELS 3 Xrotation Zrotation Yrotation
			JOINT lFoot
			{
				OFFSET 0.000000 -19.190928 -1.224953 
				CHANNELS 3 Xrotation Yrotation Zrotation
				End Site
				{
					OFFSET 0.000000 -2.449906 4.627600 
				}
			}
		}
	}
	JOINT rThigh
	{
		OFFSET -5.308129 -1.633274 1.361059 
		CHANNELS 3 Xrotation Zrotation Yrotation
		JOINT rShin
		{
			OFFSET 2.041588 -20.007561 0.000000 
			CHANNELS 3 Xrotation Zrotation Yrotation
			JOINT rFoot
			{
				OFFSET 0.000000 -19.190928 -1.224953 
				CHANNELS 3 Xrotation Yrotation Zrotation
				End Site
				{
					OFFSET 0.000000 -2.449906 4.627600 
				}
			}
		}
	}
}
MOTION
Frames: 8
Frame Time: 0.033333
98.997002 50.745087 -101.510139 3.027344 10.000001 32.189198 46.569160 -11.375845 -1.454445 -25.781250 10.566406 -0.642740 51.063168 8.107644 2.471410 -56.591797 9.921874 -34.101566 2.000000 -2.000000 0.000000 -86.542969 22.792967 0.664063 -83.262161 -0.723252 -3.064544 18.503805 37.721710 -3.589758 -2.000000 2.000000 0.000000 75.644531 -19.316404 15.839844 103.760147 -0.807394 -3.152943 -11.789338 -34.865364 4.313493 -7.566715 10.866230 4.507937 62.755520 -2.553075 -4.662573 17.946064 16.392971 -3.769564 4.402460 2.517916 -14.486685 21.312769 4.985205 2.011511 -6.060681 -9.544285 6.252803 
99.975487 50.885941 -99.395073 2.841797 9.824219 28.097368 46.117210 -13.266039 0.990528 -25.605469 10.029297 -1.181641 51.063168 8.107644 2.471410 -56.250000 9.716797 -34.207333 2.000000 -2.000000 0.000000 -88.535156 28.710939 -1.445313 -81.496590 -0.443652 -2.797074 20.676634 38.038303 2.056222 -2.000000 2.000000 0.000000 74.482422 -11.357421 21.015625 106.390572 -0.936565 -3.287506 -9.551382 -34.363441 2.873321 -11.307601 10.428647 3.366749 61.719406 -2.826150 -4.571237 15.575959 17.450888 -4.114549 10.750405 3.260743 -11.166753 13.942991 5.211117 1.403852 -3.284213 -8.668452 6.378701 
100.922981 50.975418 -97.257523 2.666016 9.648438 24.552420 45.896824 -14.888247 2.980979 -25.625000 9.677734 -1.904297 51.063168 8.107644 2.471410 -56.250000 9.716797 -34.207333 2.000000 -2.000000 0.000000 -89.267578 33.916019 -0.683594 -81.675552 -0.606418 -2.904970 23.973902 37.018520 12.552443 -2.000000 2.000000 0.000000 74.101563 -7.578125 23.583984 108.850563 -1.045497 -3.264454 -6.001525 -33.624432 0.774483 -12.512494 8.900775 3.056604 55.585033 -3.625211 -4.100175 12.867578 15.754921 -2.537536 17.182369 3.064504 -8.207153 5.428504 5.386307 0.656468 1.787641 -7.310651 6.470814 
101.851402 51.133392 -95.103912 2.666016 9.648438 21.212576 45.564362 -16.251318 4.507934 -25.634768 9.335938 -2.285156 51.063168 8.107644 2.471410 -56.250004 9.541016 -34.189453 2.000000 -2.000000 0.000000 -89.042969 38.232418 1.582031 -82.731087 -0.569115 -2.936468 27.259539 35.471458 23.082693 -2.000000 2.000000 0.000000 73.701172 -6.171875 25.039064 111.486885 -1.163052 -3.261454 -2.285229 -32.810814 -1.925233 -11.815956 6.806400 2.900532 45.216591 -4.133401 -3.588381 10.209167 12.579249 -0.400195 22.387777 2.030414 -6.604274 -1.948493 5.430326 -0.283628 10.339972 -4.901651 6.331135 
102.772728 51.183487 -92.940338 2.666016 9.648438 18.048512 45.544041 -17.474207 5.435933 -25.820314 9.169923 -2.500000 51.063168 8.107644 2.471410 -56.933594 10.283201 -34.023438 2.000000 -2.000000 0.000000 -88.505859 41.699219 2.682279 -83.079735 -0.377667 -2.840015 28.977816 34.396046 30.234491 -2.000000 2.000000 0.000000 73.427734 -6.669922 26.385588 113.424934 -1.232250 -3.079871 1.290447 -31.806633 -4.482079 -10.501155 4.528033 2.713928 34.466290 -4.381790 -3.032906 8.473926 8.250461 1.559257 27.709770 1.326850 -8.208026 -8.976283 5.394654 -0.589961 20.287548 -4.122929 2.298263 
103.699059 51.222549 -90.773186 2.666016 9.824219 15.070025 45.983849 -17.902163 5.176820 -26.699221 9.541017 -2.099609 51.063168 8.107644 2.471410 -58.105473 11.406249 -33.876961 2.000000 -2.000000 0.000000 -87.558594 44.423828 1.813476 -82.200272 -0.415534 -2.818262 29.398716 34.457150 32.851490 -2.000000 2.000000 0.000000 73.027344 -8.085938 27.176357 114.650131 -1.291715 -2.897525 3.999574 -31.192022 -6.581819 -10.275599 3.220218 1.743848 27.968096 -5.219082 -2.540627 6.544147 4.504116 2.728191 30.504971 0.301653 -11.427879 -14.273343 5.309220 -1.112298 31.940519 -4.373597 -3.362265 
104.642143 51.213394 -88.608582 2.480469 9.824219 12.404011 47.127415 -17.762306 3.470547 -27.929689 10.439453 -1.044922 51.063168 8.107644 2.471410 -59.326168 11.992188 -33.113205 2.000000 -2.000000 0.000000 -86.875000 45.624996 -0.354348 -80.965500 -0.289498 -2.669072 28.363638 34.906132 32.311203 -2.000000 2.000000 0.000000 72.470703 -11.064452 28.357500 115.002243 -1.290586 -2.917016 5.303191 -30.496675 -7.178402 -11.387931 2.068345 0.632590 25.851913 -5.302369 -2.373613 6.860897 2.877849 3.246778 32.418339 -0.743151 -13.736741 -14.237212 5.326011 -1.081986 39.381077 -5.754139 -8.173037 
105.511879 51.656898 -86.296310 2.480469 10.175781 9.601335 48.386158 -17.483604 1.147997 -29.160158 11.347656 -0.029296 51.063168 8.107644 2.471410 -59.882816 11.845701 -31.796877 2.000000 -2.000000 0.000000 -86.093750 43.828125 -1.448314 -81.317337 -0.270565 -2.679952 27.961941 35.959904 30.386013 -2.000000 2.000000 0.000000 72.255859 -15.244141 29.089233 115.008743 -1.111877 -3.131578 5.576640 -30.439943 -6.573407 -13.250780 1.386159 0.213422 26.721891 -4.707163 -3.214243 7.524816 1.469977 3.811794 28.013842 -2.617592 -13.809454 -3.508195 5.264706 -0.126079 39.304443 -8.577474 -8.778911 
